<mxfile host="app.diagrams.net" modified="2022-05-05T15:26:04.420Z" agent="5.0 (Macintosh; Intel Mac OS X 10_15_7) AppleWebKit/537.36 (KHTML, like Gecko) Chrome/100.0.4896.127 Safari/537.36" etag="tY5leZnmF-y3v0f9ifmZ" version="17.5.0" type="github">
  <diagram id="YfxaRJ8LcLdbJehXg239" name="Page-1">
    <mxGraphModel dx="1668" dy="868" grid="1" gridSize="10" guides="1" tooltips="1" connect="1" arrows="1" fold="1" page="1" pageScale="1" pageWidth="1169" pageHeight="827" math="0" shadow="0">
      <root>
        <mxCell id="0" />
        <mxCell id="1" parent="0" />
        <mxCell id="2HQswFuqirtzm49dZXV4-6" style="edgeStyle=orthogonalEdgeStyle;rounded=0;orthogonalLoop=1;jettySize=auto;html=1;entryX=0;entryY=0.5;entryDx=0;entryDy=0;fontFamily=Helvetica;fontSize=16;fontColor=default;strokeWidth=2;fillColor=#dae8fc;strokeColor=#6c8ebf;" edge="1" parent="1" source="2HQswFuqirtzm49dZXV4-1" target="2HQswFuqirtzm49dZXV4-5">
          <mxGeometry relative="1" as="geometry" />
        </mxCell>
        <mxCell id="2HQswFuqirtzm49dZXV4-1" value="OpenCV切帧" style="rounded=1;whiteSpace=wrap;html=1;fillColor=#dae8fc;strokeColor=#6c8ebf;fontSize=16;" vertex="1" parent="1">
          <mxGeometry x="190" y="400" width="140" height="70" as="geometry" />
        </mxCell>
        <mxCell id="2HQswFuqirtzm49dZXV4-2" value="" style="shape=flexArrow;endArrow=classic;html=1;rounded=0;fontFamily=Helvetica;fontSize=16;fontColor=default;fillColor=#dae8fc;strokeColor=#6c8ebf;strokeWidth=0;" edge="1" parent="1">
          <mxGeometry width="50" height="50" relative="1" as="geometry">
            <mxPoint x="40" y="435" as="sourcePoint" />
            <mxPoint x="170" y="434.5" as="targetPoint" />
          </mxGeometry>
        </mxCell>
        <mxCell id="2HQswFuqirtzm49dZXV4-4" value="视频文件" style="text;html=1;strokeColor=none;fillColor=default;align=center;verticalAlign=middle;whiteSpace=wrap;rounded=0;fontFamily=Helvetica;fontSize=16;fontColor=default;" vertex="1" parent="1">
          <mxGeometry x="60" y="420" width="70" height="30" as="geometry" />
        </mxCell>
        <mxCell id="2HQswFuqirtzm49dZXV4-14" style="edgeStyle=orthogonalEdgeStyle;rounded=0;orthogonalLoop=1;jettySize=auto;html=1;exitX=1;exitY=0.5;exitDx=0;exitDy=0;entryX=0;entryY=0.5;entryDx=0;entryDy=0;fontFamily=Helvetica;fontSize=16;fontColor=default;strokeWidth=2;fillColor=#dae8fc;strokeColor=#6c8ebf;" edge="1" parent="1" source="2HQswFuqirtzm49dZXV4-5" target="2HQswFuqirtzm49dZXV4-9">
          <mxGeometry relative="1" as="geometry" />
        </mxCell>
        <mxCell id="2HQswFuqirtzm49dZXV4-15" style="edgeStyle=orthogonalEdgeStyle;rounded=0;orthogonalLoop=1;jettySize=auto;html=1;exitX=1;exitY=0.5;exitDx=0;exitDy=0;entryX=0;entryY=0.5;entryDx=0;entryDy=0;fontFamily=Helvetica;fontSize=16;fontColor=default;strokeWidth=2;fillColor=#dae8fc;strokeColor=#6c8ebf;" edge="1" parent="1" source="2HQswFuqirtzm49dZXV4-5" target="2HQswFuqirtzm49dZXV4-7">
          <mxGeometry relative="1" as="geometry" />
        </mxCell>
        <mxCell id="2HQswFuqirtzm49dZXV4-5" value="Vgg模型提取图片特征" style="rounded=1;whiteSpace=wrap;html=1;fillColor=#dae8fc;strokeColor=#6c8ebf;fontSize=16;" vertex="1" parent="1">
          <mxGeometry x="420" y="400" width="180" height="70" as="geometry" />
        </mxCell>
        <mxCell id="2HQswFuqirtzm49dZXV4-21" style="edgeStyle=orthogonalEdgeStyle;rounded=0;orthogonalLoop=1;jettySize=auto;html=1;exitX=1;exitY=0.5;exitDx=0;exitDy=0;entryX=0;entryY=0.5;entryDx=0;entryDy=0;fontFamily=Helvetica;fontSize=16;fontColor=default;strokeWidth=2;fillColor=#dae8fc;strokeColor=#6c8ebf;startArrow=none;" edge="1" parent="1" source="2HQswFuqirtzm49dZXV4-22" target="2HQswFuqirtzm49dZXV4-19">
          <mxGeometry relative="1" as="geometry" />
        </mxCell>
        <mxCell id="2HQswFuqirtzm49dZXV4-7" value="Milvus" style="whiteSpace=wrap;html=1;fontSize=16;fillColor=#dae8fc;strokeColor=#6c8ebf;rounded=1;" vertex="1" parent="1">
          <mxGeometry x="720" y="500" width="120" height="60" as="geometry" />
        </mxCell>
        <mxCell id="2HQswFuqirtzm49dZXV4-20" style="edgeStyle=orthogonalEdgeStyle;rounded=0;orthogonalLoop=1;jettySize=auto;html=1;exitX=1;exitY=0.5;exitDx=0;exitDy=0;entryX=0;entryY=0.5;entryDx=0;entryDy=0;fontFamily=Helvetica;fontSize=16;fontColor=default;strokeWidth=2;fillColor=#dae8fc;strokeColor=#6c8ebf;startArrow=none;" edge="1" parent="1" source="2HQswFuqirtzm49dZXV4-22" target="2HQswFuqirtzm49dZXV4-19">
          <mxGeometry relative="1" as="geometry" />
        </mxCell>
        <mxCell id="2HQswFuqirtzm49dZXV4-9" value="MinIO集群" style="whiteSpace=wrap;html=1;fontSize=16;fillColor=#dae8fc;strokeColor=#6c8ebf;rounded=1;" vertex="1" parent="1">
          <mxGeometry x="720" y="310" width="120" height="60" as="geometry" />
        </mxCell>
        <mxCell id="2HQswFuqirtzm49dZXV4-16" value="原视频" style="text;html=1;strokeColor=none;fillColor=default;align=center;verticalAlign=middle;whiteSpace=wrap;rounded=0;fontFamily=Helvetica;fontSize=16;fontColor=default;" vertex="1" parent="1">
          <mxGeometry x="630" y="370" width="60" height="30" as="geometry" />
        </mxCell>
        <mxCell id="2HQswFuqirtzm49dZXV4-17" value="特征向量" style="text;html=1;strokeColor=none;fillColor=default;align=center;verticalAlign=middle;whiteSpace=wrap;rounded=0;fontFamily=Helvetica;fontSize=16;fontColor=default;" vertex="1" parent="1">
          <mxGeometry x="630" y="460" width="70" height="30" as="geometry" />
        </mxCell>
        <mxCell id="2HQswFuqirtzm49dZXV4-19" value="Redis" style="whiteSpace=wrap;html=1;fontSize=16;fillColor=#dae8fc;strokeColor=#6c8ebf;rounded=1;" vertex="1" parent="1">
          <mxGeometry x="1030" y="410" width="120" height="60" as="geometry" />
        </mxCell>
        <mxCell id="2HQswFuqirtzm49dZXV4-25" value="" style="edgeStyle=orthogonalEdgeStyle;rounded=0;orthogonalLoop=1;jettySize=auto;html=1;exitX=1;exitY=0.5;exitDx=0;exitDy=0;entryX=0;entryY=0.5;entryDx=0;entryDy=0;fontFamily=Helvetica;fontSize=16;fontColor=default;strokeWidth=2;fillColor=#dae8fc;strokeColor=#6c8ebf;endArrow=none;" edge="1" parent="1" source="2HQswFuqirtzm49dZXV4-9" target="2HQswFuqirtzm49dZXV4-22">
          <mxGeometry relative="1" as="geometry">
            <mxPoint x="840" y="340" as="sourcePoint" />
            <mxPoint x="950" y="440" as="targetPoint" />
          </mxGeometry>
        </mxCell>
        <mxCell id="2HQswFuqirtzm49dZXV4-22" value="特征向量和存储对象的映射关系" style="text;html=1;strokeColor=none;fillColor=none;align=center;verticalAlign=middle;whiteSpace=wrap;rounded=0;fontFamily=Helvetica;fontSize=16;fontColor=default;" vertex="1" parent="1">
          <mxGeometry x="880" y="425" width="120" height="30" as="geometry" />
        </mxCell>
        <mxCell id="2HQswFuqirtzm49dZXV4-26" value="" style="edgeStyle=orthogonalEdgeStyle;rounded=0;orthogonalLoop=1;jettySize=auto;html=1;exitX=1;exitY=0.5;exitDx=0;exitDy=0;entryX=0;entryY=0.5;entryDx=0;entryDy=0;fontFamily=Helvetica;fontSize=16;fontColor=default;strokeWidth=2;fillColor=#dae8fc;strokeColor=#6c8ebf;endArrow=none;" edge="1" parent="1" source="2HQswFuqirtzm49dZXV4-7" target="2HQswFuqirtzm49dZXV4-22">
          <mxGeometry relative="1" as="geometry">
            <mxPoint x="840" y="530" as="sourcePoint" />
            <mxPoint x="990" y="440" as="targetPoint" />
          </mxGeometry>
        </mxCell>
      </root>
    </mxGraphModel>
  </diagram>
</mxfile>
